<svg xmlns="http://www.w3.org/2000/svg" width="35" height="36" viewBox="0 0 35 36">
  <path d="M21.9965278,18.0901503 C24.5486111,16.7679466 26.3715278,14.3639399 26.9791667,11.4791319 C26.9791667,11.4791319 26.9791667,11.4791319 26.9791667,11.4791319 C28.0729167,6.31051753 24.5486111,1.26210351 19.3229167,0.180300501 C16.7708333,-0.300500835 14.21875,0.180300501 12.03125,1.62270451 C9.84375,3.06510851 8.38541667,5.22871452 7.89930556,7.75292154 C7.41319444,10.2771285 7.89930556,12.8013356 9.35763889,14.9649416 C10.3298611,16.2871452 11.5451389,17.3689482 12.8819444,18.0901503 C5.46875,20.0133556 0,26.7445743 0,34.7979967 C0,35.5191987 0.486111111,36 1.21527778,36 L33.7847222,36 C34.5138889,36 35,35.5191987 35,34.7979967 C35,26.7445743 29.53125,20.0133556 21.9965278,18.0901503 Z M11.4236111,13.5225376 C10.3298611,11.9599332 9.96527778,10.0367279 10.3298611,8.11352254 C10.6944444,6.1903172 11.7881944,4.62771285 13.4895833,3.54590985 C14.7048611,2.70450751 16.0416667,2.34390651 17.5,2.34390651 C17.9861111,2.34390651 18.4722222,2.34390651 18.9583333,2.46410684 C22.8472222,3.18530885 25.5208333,7.03171953 24.6701389,10.9983306 C24.0625,13.8831386 21.875,16.0467446 18.9583333,16.6477462 C17.9861111,16.8881469 17.0138889,16.8881469 16.1631944,16.6477462 C14.21875,16.2871452 12.5173611,15.2053422 11.4236111,13.5225376 Z M2.43055556,33.5959933 C3.03819444,25.903172 9.60069444,19.8931553 17.5,19.8931553 C25.3993056,19.8931553 31.9618056,25.903172 32.5694444,33.5959933 L2.43055556,33.5959933 Z"/>
</svg>
